
<svg version="1.2" xmlns="http://www.w3.org/2000/svg" viewBox="0 0 1080 1080" width="1080" height="1080">
	<title>logo-svg</title>
	<style>
		.s0 { fill: #cacaca } 
		.s1 { fill: none;stroke: #cacaca;stroke-miterlimit:100;stroke-width: 200 } 
		.s2 { opacity: .5;fill: none;stroke: #686868;stroke-miterlimit:100;stroke-width: 200 } 
	</style>
	<path id="Shape 2 copy 4" class="s0" d="m1080 1350c-149.3 0-270-120.7-270-270 0-149.3 120.7-270 270-270 149.3 0 270 120.7 270 270 0 149.3-120.7 270-270 270zm-1080-1080c-149.3 0-270-120.7-270-270 0-149.3 120.7-270 270-270 149.3 0 270 120.7 270 270 0 149.3-120.7 270-270 270zm0 1080c-149.3 0-270-120.7-270-270 0-149.3 120.7-270 270-270 149.3 0 270 120.7 270 270 0 149.3-120.7 270-270 270zm1080-1080c-149.3 0-270-120.7-270-270 0-149.3 120.7-270 270-270 149.3 0 270 120.7 270 270 0 149.3-120.7 270-270 270z"/>
	<path id="yellow inner round" fill-rule="evenodd" class="s1" d="m540 1080.1c0-298.6-241.4-540-539.9-540-298.6 0-540 241.4-540 540 0 298.5 241.4 539.9 540 539.9 298.5 0 539.9-241.4 539.9-539.9zm1080-1080c0-298.6-241.4-540-539.9-540-298.6 0-540 241.4-540 540 0 298.5 241.4 539.9 540 539.9 298.5 0 539.9-241.4 539.9-539.9z"/>
	<path id="orange" fill-rule="evenodd" class="s2" d="m1080.1 1620c-298.6 0-540-241.4-540-539.9 0-298.6 241.4-540 540-540 298.5 0 539.9 241.4 539.9 540 0 298.5-241.4 539.9-539.9 539.9zm-1080-1080c-298.6 0-540-241.4-540-539.9 0-298.6 241.4-540 540-540 298.5 0 539.9 241.4 539.9 540 0 298.5-241.4 539.9-539.9 539.9z"/>
</svg>